# xmcd
#
# Track frame offsets: 
#        150
#        13684
#        26162
#        39186
#        52541
#        64923
#        79491
#        93880
#        106317
#        121082
#        136356
#        149338
#        160528
#        174293
#        188098
#        200013
#        213221
#        226622
#        239191
#        251400
#        263252
#        277919
#        291793
#        305511
#        318572
#
# Disc length: 4405 seconds
#
# Revision: 1
# Processed by: cddbd v1.5.2PL0 Copyright (c) Steve Scherf et al.
# Submitted via: ExactAudioCopy v1.3
#
DISCID=4d113319
DTITLE=Blind Blake - The Rough Guide to Blues Legends: Blind Blake (Di
DTITLE=sc 1)
DYEAR=2013
DGENRE=Blues
TTITLE0=Blind Arthur s Breakdown 
TTITLE1=He s In The Jailhouse Now 
TTITLE2=Police Dog Blues 
TTITLE3=Diddie Wah Diddie 
TTITLE4=You Gonna Quit Me Blues 
TTITLE5=West Coast Blues 
TTITLE6=Hey Hey Daddy Blues 
TTITLE7=Come On Boys Let s Do That Messin Around 
TTITLE8=I Was Afraid Of That: Part 2 
TTITLE9=Georgia Bound 
TTITLE10=Southern Rag 
TTITLE11=Bad Feelin Blues 
TTITLE12=That Will Never Happen No More 
TTITLE13=Skeedle Loo Doo Blues 
TTITLE14=Doing A Stretch 
TTITLE15=Too Tight Blues No. 2 
TTITLE16=Sweet Jivin Mama 
TTITLE17=Dry Bone Shuffle 
TTITLE18=Poker Woman Blues 
TTITLE19=Righteous Blues 
TTITLE20=Sweet Papa Low Down 
TTITLE21=Sea Board Stomp 
TTITLE22=Guitar Chimes 
TTITLE23=Wabash Rag 
TTITLE24=One Time Blues 
EXTD=YEAR: 2013
EXTT0=
EXTT1=
EXTT2=
EXTT3=
EXTT4=
EXTT5=
EXTT6=
EXTT7=
EXTT8=
EXTT9=
EXTT10=
EXTT11=
EXTT12=
EXTT13=
EXTT14=
EXTT15=
EXTT16=
EXTT17=
EXTT18=
EXTT19=
EXTT20=
EXTT21=
EXTT22=
EXTT23=
EXTT24=
PLAYORDER=
